<svg width="136" height="40" viewBox="0 0 136 40" fill="none" xmlns="http://www.w3.org/2000/svg">
<path d="M130.667 0H5.66663C2.9052 0 0.666626 2.23858 0.666626 5V35C0.666626 37.7614 2.9052 40 5.66663 40H130.667C133.428 40 135.667 37.7614 135.667 35V5C135.667 2.23858 133.428 0 130.667 0Z" fill="black"/>
<path d="M130.667 0.8C131.781 0.8 132.849 1.2425 133.636 2.03015C134.424 2.8178 134.867 3.88609 134.867 5V35C134.867 36.1139 134.424 37.1822 133.636 37.9698C132.849 38.7575 131.781 39.2 130.667 39.2H5.66663C4.55272 39.2 3.48443 38.7575 2.69678 37.9698C1.90912 37.1822 1.46663 36.1139 1.46663 35V5C1.46663 3.88609 1.90912 2.8178 2.69678 2.03015C3.48443 1.2425 4.55272 0.8 5.66663 0.8H130.667ZM130.667 0H5.66663C4.34054 0 3.06877 0.526784 2.13109 1.46447C1.19341 2.40215 0.666626 3.67392 0.666626 5V35C0.666626 36.3261 1.19341 37.5979 2.13109 38.5355C3.06877 39.4732 4.34054 40 5.66663 40H130.667C131.993 40 133.264 39.4732 134.202 38.5355C135.14 37.5979 135.667 36.3261 135.667 35V5C135.667 3.67392 135.14 2.40215 134.202 1.46447C133.264 0.526784 131.993 0 130.667 0Z" fill="#A6A6A6"/>
<path d="M45.0424 10.4858H47.1333V13.3869C46.8196 13.4933 46.4963 13.5724 46.1635 13.6242C45.8334 13.676 45.4638 13.702 45.0546 13.702C44.4327 13.702 43.9076 13.5778 43.4793 13.3296C43.0537 13.0814 42.7305 12.7281 42.5095 12.2698C42.2886 11.8088 42.1781 11.2619 42.1781 10.629C42.1781 10.0098 42.2995 9.46967 42.5423 9.00866C42.7878 8.54765 43.141 8.1903 43.602 7.93661C44.0658 7.68019 44.6223 7.55198 45.2715 7.55198C45.6043 7.55198 45.9194 7.58335 46.2167 7.64609C46.5168 7.70611 46.795 7.79203 47.0514 7.90388L46.7855 8.50946C46.5645 8.41399 46.3204 8.33215 46.053 8.26396C45.7884 8.19576 45.5143 8.16166 45.2306 8.16166C44.7423 8.16166 44.3236 8.26259 43.9744 8.46445C43.628 8.66632 43.362 8.95138 43.1765 9.31964C42.9937 9.6879 42.9023 10.1244 42.9023 10.629C42.9023 11.1282 42.9828 11.5633 43.1438 11.9343C43.3047 12.3026 43.5557 12.589 43.8967 12.7936C44.2376 12.9982 44.6768 13.1005 45.2142 13.1005C45.4843 13.1005 45.7161 13.0855 45.9098 13.0554C46.1035 13.0227 46.2794 12.9845 46.4377 12.9409V11.1078H45.0424V10.4858ZM51.9125 13.6201H48.5818V7.63791H51.9125V8.25168H49.2774V10.1871H51.7611V10.7927H49.2774V13.0063H51.9125V13.6201ZM55.0754 13.6201H54.3757V8.25168H52.4935V7.63791H56.9495V8.25168H55.0754V13.6201ZM60.0306 13.6201V7.63791H60.7262V13.6201H60.0306ZM64.2083 13.6201H63.5086V8.25168H61.6264V7.63791H66.0824V8.25168H64.2083V13.6201ZM74.3519 10.6208C74.3519 11.0818 74.2933 11.5019 74.176 11.8811C74.0587 12.2575 73.8841 12.5822 73.6522 12.855C73.4231 13.125 73.138 13.3337 72.797 13.481C72.456 13.6283 72.0605 13.702 71.6104 13.702C71.1467 13.702 70.7416 13.6283 70.3951 13.481C70.0514 13.3337 69.765 13.1236 69.5359 12.8509C69.3094 12.5781 69.139 12.2521 69.0244 11.8729C68.9125 11.4937 68.8566 11.0737 68.8566 10.6126C68.8566 10.0016 68.9575 9.46558 69.1594 9.00457C69.3613 8.54356 69.6668 8.18485 70.076 7.92843C70.4879 7.67201 71.0034 7.5438 71.6227 7.5438C72.2146 7.5438 72.7125 7.67064 73.1162 7.92434C73.5226 8.17803 73.8295 8.53538 74.0368 8.99639C74.2469 9.45467 74.3519 9.99615 74.3519 10.6208ZM69.589 10.6208C69.589 11.1282 69.6613 11.5674 69.8059 11.9384C69.9505 12.3094 70.1714 12.5958 70.4688 12.7977C70.7689 12.9995 71.1494 13.1005 71.6104 13.1005C72.0741 13.1005 72.4533 12.9995 72.7479 12.7977C73.0453 12.5958 73.2648 12.3094 73.4067 11.9384C73.5485 11.5674 73.6195 11.1282 73.6195 10.6208C73.6195 9.84884 73.4572 9.24599 73.1325 8.81226C72.8107 8.3758 72.3074 8.15757 71.6227 8.15757C71.1589 8.15757 70.777 8.25714 70.477 8.45627C70.1769 8.6554 69.9532 8.9391 69.8059 9.30736C69.6613 9.6729 69.589 10.1107 69.589 10.6208ZM80.3627 13.6201H79.5608L76.2996 8.59539H76.2669C76.275 8.72906 76.2846 8.88182 76.2955 9.05367C76.3064 9.2228 76.3146 9.4042 76.3201 9.59788C76.3282 9.78883 76.3323 9.98387 76.3323 10.183V13.6201H75.6858V7.63791H76.4837L79.7326 12.6463H79.7613C79.7558 12.5508 79.749 12.4158 79.7408 12.2412C79.7326 12.0639 79.7244 11.8743 79.7162 11.6724C79.7108 11.4678 79.7081 11.2782 79.7081 11.1037V7.63791H80.3627V13.6201Z" fill="white"/>
<path d="M45.0424 10.4858V10.3858H44.9424V10.4858H45.0424ZM47.1333 10.4858H47.2333V10.3858H47.1333V10.4858ZM47.1333 13.3869L47.1654 13.4816L47.2333 13.4586V13.3869H47.1333ZM46.1635 13.6242L46.1481 13.5254L46.148 13.5254L46.1635 13.6242ZM43.4793 13.3296L43.4289 13.416L43.4291 13.4161L43.4793 13.3296ZM42.5095 12.2698L42.4194 12.313L42.4195 12.3133L42.5095 12.2698ZM42.5423 9.00866L42.454 8.96166L42.4538 8.96207L42.5423 9.00866ZM43.602 7.93661L43.6503 8.02422L43.6504 8.02412L43.602 7.93661ZM46.2167 7.64609L46.1961 7.74394L46.1971 7.74415L46.2167 7.64609ZM47.0514 7.90388L47.143 7.94409L47.1833 7.8523L47.0914 7.81222L47.0514 7.90388ZM46.7855 8.50946L46.7458 8.60126L46.837 8.64069L46.877 8.54967L46.7855 8.50946ZM46.053 8.26396L46.0281 8.36079L46.0283 8.36085L46.053 8.26396ZM43.9744 8.46445L43.9243 8.37788L43.9241 8.37805L43.9744 8.46445ZM43.1765 9.31964L43.0872 9.27465L43.0869 9.27518L43.1765 9.31964ZM43.1438 11.9343L43.052 11.9741L43.0521 11.9743L43.1438 11.9343ZM43.8967 12.7936L43.8452 12.8793L43.8967 12.7936ZM45.9098 13.0554L45.9251 13.1543L45.9265 13.1541L45.9098 13.0554ZM46.4377 12.9409L46.4643 13.0373L46.5377 13.017V12.9409H46.4377ZM46.4377 11.1078H46.5377V11.0078H46.4377V11.1078ZM45.0424 11.1078H44.9424V11.2078H45.0424V11.1078ZM45.0424 10.5858H47.1333V10.3858H45.0424V10.5858ZM47.0333 10.4858V13.3869H47.2333V10.4858H47.0333ZM47.1012 13.2922C46.793 13.3967 46.4753 13.4744 46.1481 13.5254L46.1789 13.723C46.5173 13.6703 46.8461 13.5899 47.1654 13.4816L47.1012 13.2922ZM46.148 13.5254C45.824 13.5763 45.4597 13.602 45.0546 13.602V13.802C45.4679 13.802 45.8428 13.7758 46.179 13.723L46.148 13.5254ZM45.0546 13.602C44.4458 13.602 43.939 13.4805 43.5294 13.2431L43.4291 13.4161C43.8761 13.6752 44.4195 13.802 45.0546 13.802V13.602ZM43.5297 13.2432C43.1219 13.0054 42.8122 12.6673 42.5996 12.2264L42.4195 12.3133C42.6488 12.7889 42.9856 13.1574 43.4289 13.416L43.5297 13.2432ZM42.5997 12.2266C42.3866 11.7819 42.2781 11.2504 42.2781 10.629H42.0781C42.0781 11.2734 42.1906 11.8357 42.4194 12.313L42.5997 12.2266ZM42.2781 10.629C42.2781 10.023 42.3968 9.49943 42.6308 9.05526L42.4538 8.96207C42.2021 9.43992 42.0781 9.9966 42.0781 10.629H42.2781ZM42.6305 9.05567C42.8668 8.61193 43.2061 8.26863 43.6503 8.02422L43.5538 7.849C43.076 8.11198 42.7087 8.48338 42.454 8.96166L42.6305 9.05567ZM43.6504 8.02412C44.0964 7.77755 44.6354 7.65198 45.2715 7.65198V7.45198C44.6091 7.45198 44.0352 7.58284 43.5537 7.8491L43.6504 8.02412ZM45.2715 7.65198C45.598 7.65198 45.9061 7.68276 46.1961 7.74394L46.2374 7.54825C45.9326 7.48395 45.6106 7.45198 45.2715 7.45198V7.65198ZM46.1971 7.74415C46.4908 7.80289 46.7622 7.8868 47.0115 7.99554L47.0914 7.81222C46.8279 7.69727 46.5427 7.60932 46.2363 7.54804L46.1971 7.74415ZM46.9599 7.86367L46.6939 8.46925L46.877 8.54967L47.143 7.94409L46.9599 7.86367ZM46.8251 8.41767C46.5987 8.31982 46.3495 8.23637 46.0778 8.16706L46.0283 8.36085C46.2913 8.42793 46.5303 8.50815 46.7458 8.60126L46.8251 8.41767ZM46.078 8.16712C45.8049 8.09674 45.5224 8.06166 45.2306 8.06166V8.26166C45.5062 8.26166 45.7719 8.29477 46.0281 8.36079L46.078 8.16712ZM45.2306 8.06166C44.7284 8.06166 44.2916 8.16554 43.9243 8.37788L44.0244 8.55103C44.3555 8.35964 44.7562 8.26166 45.2306 8.26166V8.06166ZM43.9241 8.37805C43.5604 8.58995 43.2811 8.88962 43.0872 9.27465L43.2658 9.36462C43.4429 9.01313 43.6955 8.74269 44.0247 8.55086L43.9241 8.37805ZM43.0869 9.27518C42.8959 9.66005 42.8023 10.1124 42.8023 10.629H43.0023C43.0023 10.1363 43.0915 9.71575 43.2661 9.36409L43.0869 9.27518ZM42.8023 10.629C42.8023 11.1388 42.8845 11.588 43.052 11.9741L43.2355 11.8945C43.0811 11.5386 43.0023 11.1176 43.0023 10.629H42.8023ZM43.0521 11.9743C43.2213 12.3614 43.4862 12.6639 43.8452 12.8793L43.9481 12.7078C43.6251 12.514 43.3881 12.2437 43.2354 11.8943L43.0521 11.9743ZM43.8452 12.8793C44.2063 13.096 44.6648 13.2005 45.2142 13.2005V13.0005C44.6888 13.0005 44.269 12.9004 43.9481 12.7078L43.8452 12.8793ZM45.2142 13.2005C45.4876 13.2005 45.7249 13.1853 45.9251 13.1543L45.8945 12.9566C45.7074 12.9856 45.4809 13.0005 45.2142 13.0005V13.2005ZM45.9265 13.1541C46.1229 13.1209 46.3022 13.082 46.4643 13.0373L46.4111 12.8445C46.2567 12.8871 46.0841 12.9246 45.8932 12.9568L45.9265 13.1541ZM46.5377 12.9409V11.1078H46.3377V12.9409H46.5377ZM46.4377 11.0078H45.0424V11.2078H46.4377V11.0078ZM45.1424 11.1078V10.4858H44.9424V11.1078H45.1424ZM51.9125 13.6201V13.7201H52.0125V13.6201H51.9125ZM48.5818 13.6201H48.4818V13.7201H48.5818V13.6201ZM48.5818 7.63791V7.53791H48.4818V7.63791H48.5818ZM51.9125 7.63791H52.0125V7.53791H51.9125V7.63791ZM51.9125 8.25168V8.35168H52.0125V8.25168H51.9125ZM49.2774 8.25168V8.15168H49.1774V8.25168H49.2774ZM49.2774 10.1871H49.1774V10.2871H49.2774V10.1871ZM51.7611 10.1871H51.8611V10.0871H51.7611V10.1871ZM51.7611 10.7927V10.8927H51.8611V10.7927H51.7611ZM49.2774 10.7927V10.6927H49.1774V10.7927H49.2774ZM49.2774 13.0063H49.1774V13.1063H49.2774V13.0063ZM51.9125 13.0063H52.0125V12.9063H51.9125V13.0063ZM51.9125 13.5201H48.5818V13.7201H51.9125V13.5201ZM48.6818 13.6201V7.63791H48.4818V13.6201H48.6818ZM48.5818 7.73791H51.9125V7.53791H48.5818V7.73791ZM51.8125 7.63791V8.25168H52.0125V7.63791H51.8125ZM51.9125 8.15168H49.2774V8.35168H51.9125V8.15168ZM49.1774 8.25168V10.1871H49.3774V8.25168H49.1774ZM49.2774 10.2871H51.7611V10.0871H49.2774V10.2871ZM51.6611 10.1871V10.7927H51.8611V10.1871H51.6611ZM51.7611 10.6927H49.2774V10.8927H51.7611V10.6927ZM49.1774 10.7927V13.0063H49.3774V10.7927H49.1774ZM49.2774 13.1063H51.9125V12.9063H49.2774V13.1063ZM51.8125 13.0063V13.6201H52.0125V13.0063H51.8125ZM55.0754 13.6201V13.7201H55.1754V13.6201H55.0754ZM54.3757 13.6201H54.2757V13.7201H54.3757V13.6201ZM54.3757 8.25168H54.4757V8.15168H54.3757V8.25168ZM52.4935 8.25168H52.3935V8.35168H52.4935V8.25168ZM52.4935 7.63791V7.53791H52.3935V7.63791H52.4935ZM56.9495 7.63791H57.0495V7.53791H56.9495V7.63791ZM56.9495 8.25168V8.35168H57.0495V8.25168H56.9495ZM55.0754 8.25168V8.15168H54.9754V8.25168H55.0754ZM55.0754 13.5201H54.3757V13.7201H55.0754V13.5201ZM54.4757 13.6201V8.25168H54.2757V13.6201H54.4757ZM54.3757 8.15168H52.4935V8.35168H54.3757V8.15168ZM52.5935 8.25168V7.63791H52.3935V8.25168H52.5935ZM52.4935 7.73791H56.9495V7.53791H52.4935V7.73791ZM56.8495 7.63791V8.25168H57.0495V7.63791H56.8495ZM56.9495 8.15168H55.0754V8.35168H56.9495V8.15168ZM54.9754 8.25168V13.6201H55.1754V8.25168H54.9754ZM60.0306 13.6201H59.9306V13.7201H60.0306V13.6201ZM60.0306 7.63791V7.53791H59.9306V7.63791H60.0306ZM60.7262 7.63791H60.8262V7.53791H60.7262V7.63791ZM60.7262 13.6201V13.7201H60.8262V13.6201H60.7262ZM60.1306 13.6201V7.63791H59.9306V13.6201H60.1306ZM60.0306 7.73791H60.7262V7.53791H60.0306V7.73791ZM60.6262 7.63791V13.6201H60.8262V7.63791H60.6262ZM60.7262 13.5201H60.0306V13.7201H60.7262V13.5201ZM64.2083 13.6201V13.7201H64.3083V13.6201H64.2083ZM63.5086 13.6201H63.4086V13.7201H63.5086V13.6201ZM63.5086 8.25168H63.6086V8.15168H63.5086V8.25168ZM61.6264 8.25168H61.5264V8.35168H61.6264V8.25168ZM61.6264 7.63791V7.53791H61.5264V7.63791H61.6264ZM66.0824 7.63791H66.1824V7.53791H66.0824V7.63791ZM66.0824 8.25168V8.35168H66.1824V8.25168H66.0824ZM64.2083 8.25168V8.15168H64.1083V8.25168H64.2083ZM64.2083 13.5201H63.5086V13.7201H64.2083V13.5201ZM63.6086 13.6201V8.25168H63.4086V13.6201H63.6086ZM63.5086 8.15168H61.6264V8.35168H63.5086V8.15168ZM61.7264 8.25168V7.63791H61.5264V8.25168H61.7264ZM61.6264 7.73791H66.0824V7.53791H61.6264V7.73791ZM65.9824 7.63791V8.25168H66.1824V7.63791H65.9824ZM66.0824 8.15168H64.2083V8.35168H66.0824V8.15168ZM64.1083 8.25168V13.6201H64.3083V8.25168H64.1083ZM74.176 11.8811L74.2714 11.9109L74.2715 11.9107L74.176 11.8811ZM73.6522 12.855L73.576 12.7902L73.576 12.7903L73.6522 12.855ZM72.797 13.481L72.8367 13.5728L72.797 13.481ZM70.3951 13.481L70.3557 13.5729L70.356 13.573L70.3951 13.481ZM69.5359 12.8509L69.4589 12.9147L69.4593 12.9152L69.5359 12.8509ZM69.0244 11.8729L68.9285 11.9012L68.9287 11.9018L69.0244 11.8729ZM70.076 7.92843L70.0231 7.84353L70.0229 7.84369L70.076 7.92843ZM73.1162 7.92434L73.063 8.00901L73.0632 8.00917L73.1162 7.92434ZM74.0368 8.99639L73.9456 9.0374L73.9459 9.03805L74.0368 8.99639ZM70.4688 12.7977L70.4126 12.8804L70.413 12.8806L70.4688 12.7977ZM72.7479 12.7977L72.6917 12.7149L72.6914 12.7152L72.7479 12.7977ZM73.1325 8.81226L73.0521 8.87161L73.0525 8.87218L73.1325 8.81226ZM70.477 8.45627L70.4217 8.37295L70.477 8.45627ZM69.8059 9.30736L69.7131 9.27022L69.7129 9.27058L69.8059 9.30736ZM74.2519 10.6208C74.2519 11.0734 74.1943 11.4833 74.0804 11.8516L74.2715 11.9107C74.3922 11.5205 74.4519 11.0903 74.4519 10.6208H74.2519ZM74.0805 11.8514C73.9668 12.2163 73.7983 12.5287 73.576 12.7902L73.7284 12.9197C73.9698 12.6357 74.1505 12.2988 74.2714 11.9109L74.0805 11.8514ZM73.576 12.7903C73.3573 13.048 73.0849 13.2477 72.7574 13.3892L72.8367 13.5728C73.1911 13.4197 73.4889 13.202 73.7285 12.9196L73.576 12.7903ZM72.7574 13.3892C72.4313 13.5301 72.0497 13.602 71.6104 13.602V13.802C72.0713 13.802 72.4808 13.7265 72.8367 13.5728L72.7574 13.3892ZM71.6104 13.602C71.1571 13.602 70.7658 13.5299 70.4343 13.389L70.356 13.573C70.7173 13.7267 71.1362 13.802 71.6104 13.802V13.602ZM70.4345 13.3891C70.1045 13.2476 69.831 13.0467 69.6124 12.7865L69.4593 12.9152C69.699 13.2005 69.9984 13.4198 70.3557 13.5729L70.4345 13.3891ZM69.6128 12.787C69.3959 12.5256 69.2313 12.2119 69.1201 11.844L68.9287 11.9018C69.0466 12.2923 69.223 12.6305 69.4589 12.9147L69.6128 12.787ZM69.1203 11.8446C69.0116 11.476 68.9566 11.0656 68.9566 10.6126H68.7566C68.7566 11.0817 68.8135 11.5115 68.9285 11.9012L69.1203 11.8446ZM68.9566 10.6126C68.9566 10.0125 69.0557 9.49064 69.251 9.04468L69.0678 8.96446C68.8594 9.44052 68.7566 9.99069 68.7566 10.6126H68.9566ZM69.251 9.04468C69.4452 8.60125 69.7377 8.25845 70.1291 8.01316L70.0229 7.84369C69.5959 8.11125 69.2774 8.48587 69.0678 8.96446L69.251 9.04468ZM70.1288 8.01332C70.521 7.76916 71.017 7.6438 71.6227 7.6438V7.4438C70.9899 7.4438 70.4547 7.57485 70.0231 7.84353L70.1288 8.01332ZM71.6227 7.6438C72.2003 7.6438 72.6786 7.7675 73.063 8.00901L73.1694 7.83966C72.7463 7.57379 72.2289 7.4438 71.6227 7.4438V7.6438ZM73.0632 8.00917C73.4519 8.25177 73.746 8.59342 73.9456 9.0374L74.128 8.95537C73.9131 8.47734 73.5933 8.10428 73.1691 7.8395L73.0632 8.00917ZM73.9459 9.03805C74.1487 9.48052 74.2519 10.0072 74.2519 10.6208H74.4519C74.4519 9.98512 74.345 9.42881 74.1277 8.95472L73.9459 9.03805ZM69.489 10.6208C69.489 11.1374 69.5626 11.5894 69.7127 11.9747L69.8991 11.9021C69.7601 11.5454 69.689 11.1191 69.689 10.6208H69.489ZM69.7127 11.9747C69.8638 12.3624 70.0967 12.666 70.4126 12.8804L70.525 12.7149C70.2462 12.5257 70.0371 12.2563 69.8991 11.9021L69.7127 11.9747ZM70.413 12.8806C70.7335 13.0963 71.1349 13.2005 71.6104 13.2005V13.0005C71.1638 13.0005 70.8042 12.9028 70.5246 12.7147L70.413 12.8806ZM71.6104 13.2005C72.0883 13.2005 72.4889 13.0964 72.8044 12.8802L72.6914 12.7152C72.4178 12.9027 72.0599 13.0005 71.6104 13.0005V13.2005ZM72.8041 12.8804C73.1201 12.6658 73.3517 12.3621 73.5001 11.9741L73.3133 11.9027C73.1779 12.2567 72.9704 12.5258 72.6917 12.7149L72.8041 12.8804ZM73.5001 11.9741C73.6473 11.589 73.7195 11.1372 73.7195 10.6208H73.5195C73.5195 11.1192 73.4498 11.5458 73.3133 11.9027L73.5001 11.9741ZM73.7195 10.6208C73.7195 9.83614 73.5546 9.20934 73.2126 8.75234L73.0525 8.87218C73.3597 9.28263 73.5195 9.86155 73.5195 10.6208H73.7195ZM73.213 8.7529C72.8674 8.28426 72.3299 8.05757 71.6227 8.05757V8.25757C72.2849 8.25757 72.7539 8.46734 73.0521 8.87161L73.213 8.7529ZM71.6227 8.05757C71.1449 8.05757 70.7423 8.1602 70.4217 8.37295L70.5323 8.53959C70.8118 8.35407 71.173 8.25757 71.6227 8.25757V8.05757ZM70.4217 8.37295C70.103 8.58444 69.8671 8.88511 69.7131 9.27022L69.8988 9.3445C70.0393 8.99309 70.2508 8.72637 70.5323 8.53959L70.4217 8.37295ZM69.7129 9.27058C69.5626 9.65074 69.489 10.1017 69.489 10.6208H69.689C69.689 10.1197 69.7601 9.69505 69.8989 9.34414L69.7129 9.27058ZM80.3628 13.6201V13.7201H80.4627V13.6201H80.3628ZM79.5608 13.6201L79.4769 13.6746L79.5064 13.7201H79.5608V13.6201ZM76.2996 8.59539L76.3835 8.54095L76.3539 8.49539H76.2996V8.59539ZM76.2669 8.59539V8.49539H76.1605L76.167 8.6015L76.2669 8.59539ZM76.2955 9.05367L76.1957 9.06001L76.1957 9.06011L76.2955 9.05367ZM76.3201 9.59788L76.2201 9.6007L76.2201 9.60216L76.3201 9.59788ZM76.3323 13.6201V13.7201H76.4323V13.6201H76.3323ZM75.6858 13.6201H75.5858V13.7201H75.6858V13.6201ZM75.6858 7.63791V7.53791H75.5858V7.63791H75.6858ZM76.4837 7.63791L76.5676 7.58349L76.5381 7.53791H76.4837V7.63791ZM79.7326 12.6463L79.6487 12.7007L79.6783 12.7463H79.7326V12.6463ZM79.7613 12.6463V12.7463H79.8671L79.8611 12.6406L79.7613 12.6463ZM79.7408 12.2412L79.6409 12.2458L79.6409 12.2459L79.7408 12.2412ZM79.7162 11.6724L79.6163 11.6751L79.6163 11.6765L79.7162 11.6724ZM79.7081 7.63791V7.53791H79.6081V7.63791H79.7081ZM80.3628 7.63791H80.4627V7.53791H80.3628V7.63791ZM80.3628 13.5201H79.5608V13.7201H80.3628V13.5201ZM79.6446 13.5657L76.3835 8.54095L76.2157 8.64983L79.4769 13.6746L79.6446 13.5657ZM76.2996 8.49539H76.2669V8.69539H76.2996V8.49539ZM76.167 8.6015C76.1752 8.73526 76.1848 8.8881 76.1957 9.06001L76.3953 9.04734C76.3844 8.87554 76.3749 8.72285 76.3667 8.58928L76.167 8.6015ZM76.1957 9.06011C76.2065 9.22788 76.2147 9.40806 76.2201 9.6007L76.42 9.59507C76.4145 9.40035 76.4063 9.21772 76.3953 9.04723L76.1957 9.06011ZM76.2201 9.60216C76.2283 9.79163 76.2323 9.98524 76.2323 10.183H76.4323C76.4323 9.98251 76.4282 9.78603 76.42 9.5936L76.2201 9.60216ZM76.2323 10.183V13.6201H76.4323V10.183H76.2323ZM76.3323 13.5201H75.6858V13.7201H76.3323V13.5201ZM75.7858 13.6201V7.63791H75.5858V13.6201H75.7858ZM75.6858 7.73791H76.4837V7.53791H75.6858V7.73791ZM76.3998 7.69233L79.6487 12.7007L79.8165 12.5918L76.5676 7.58349L76.3998 7.69233ZM79.7326 12.7463H79.7613V12.5463H79.7326V12.7463ZM79.8611 12.6406C79.8557 12.5456 79.8489 12.411 79.8407 12.2365L79.6409 12.2459C79.6491 12.4206 79.6559 12.556 79.6614 12.652L79.8611 12.6406ZM79.8407 12.2366C79.8325 12.0595 79.8243 11.8701 79.8162 11.6684L79.6163 11.6765C79.6245 11.8785 79.6327 12.0683 79.6409 12.2458L79.8407 12.2366ZM79.8162 11.6698C79.8108 11.4659 79.8081 11.2772 79.8081 11.1037H79.6081C79.6081 11.2793 79.6108 11.4698 79.6163 11.6751L79.8162 11.6698ZM79.8081 11.1037V7.63791H79.6081V11.1037H79.8081ZM79.7081 7.73791H80.3628V7.53791H79.7081V7.73791ZM80.2627 7.63791V13.6201H80.4627V7.63791H80.2627Z" fill="white"/>
<path d="M68.8066 21.7499C67.9641 21.7519 67.141 22.0037 66.4416 22.4734C65.7421 22.9432 65.1977 23.6098 64.8771 24.3889C64.5565 25.1681 64.4741 26.0248 64.6404 26.8508C64.8067 27.6768 65.2142 28.4349 65.8114 29.0293C66.4086 29.6236 67.1686 30.0276 67.9953 30.19C68.8221 30.3524 69.6784 30.2661 70.4561 29.9418C71.2337 29.6175 71.8978 29.07 72.3642 28.3683C72.8307 27.6667 73.0786 26.8425 73.0766 25.9999C73.0848 25.4379 72.9797 24.8799 72.7678 24.3593C72.5558 23.8386 72.2413 23.366 71.8429 22.9694C71.4444 22.5729 70.9703 22.2606 70.4487 22.051C69.9271 21.8415 69.3686 21.7391 68.8066 21.7499ZM68.8066 28.5799C68.2902 28.616 67.7748 28.496 67.3276 28.2353C66.8803 27.9747 66.5218 27.5855 66.2986 27.1184C66.0755 26.6512 65.998 26.1278 66.0763 25.6161C66.1546 25.1043 66.385 24.628 66.7376 24.249C67.0902 23.8699 67.5486 23.6057 68.0534 23.4907C68.5581 23.3757 69.0858 23.4152 69.5678 23.604C70.0498 23.7929 70.4638 24.1223 70.7561 24.5496C71.0484 24.9769 71.2053 25.4822 71.2066 25.9999C71.2227 26.3279 71.173 26.6559 71.0603 26.9643C70.9477 27.2728 70.7744 27.5556 70.5507 27.7961C70.3271 28.0366 70.0575 28.2298 69.7579 28.3644C69.4584 28.499 69.1349 28.5723 68.8066 28.5799ZM59.4866 21.7499C58.6441 21.7519 57.821 22.0037 57.1216 22.4734C56.4221 22.9432 55.8777 23.6098 55.5571 24.3889C55.2365 25.1681 55.1541 26.0248 55.3204 26.8508C55.4867 27.6768 55.8942 28.4349 56.4914 29.0293C57.0886 29.6236 57.8486 30.0276 58.6753 30.19C59.5021 30.3524 60.3584 30.2661 61.1361 29.9418C61.9137 29.6175 62.5778 29.07 63.0442 28.3683C63.5107 27.6667 63.7586 26.8425 63.7566 25.9999C63.7648 25.4379 63.6597 24.8799 63.4478 24.3593C63.2358 23.8386 62.9213 23.366 62.5229 22.9694C62.1244 22.5729 61.6503 22.2606 61.1287 22.051C60.6071 21.8415 60.0486 21.7391 59.4866 21.7499ZM59.4866 28.5799C58.9702 28.616 58.4548 28.496 58.0076 28.2353C57.5603 27.9747 57.2018 27.5855 56.9786 27.1184C56.7555 26.6512 56.678 26.1278 56.7563 25.6161C56.8346 25.1043 57.065 24.628 57.4176 24.249C57.7702 23.8699 58.2286 23.6057 58.7334 23.4907C59.2381 23.3757 59.7658 23.4152 60.2478 23.604C60.7298 23.7929 61.1438 24.1223 61.4361 24.5496C61.7284 24.9769 61.8853 25.4822 61.8866 25.9999C61.9027 26.3279 61.853 26.6559 61.7403 26.9643C61.6277 27.2728 61.4544 27.5556 61.2307 27.7961C61.0071 28.0366 60.7375 28.2298 60.438 28.3644C60.1384 28.499 59.8149 28.5723 59.4866 28.5799ZM48.4066 23.0599V24.8599H52.7266C52.6589 25.7077 52.3064 26.5077 51.7266 27.1299C51.2933 27.5714 50.7721 27.9171 50.1967 28.1444C49.6214 28.3718 49.0047 28.4759 48.3866 28.4499C47.1136 28.4499 45.8927 27.9442 44.9925 27.044C44.0923 26.1439 43.5866 24.923 43.5866 23.6499C43.5866 22.3769 44.0923 21.156 44.9925 20.2558C45.8927 19.3556 47.1136 18.8499 48.3866 18.8499C49.6071 18.8318 50.7855 19.2952 51.6666 20.1399L52.9366 18.8699C52.3406 18.2804 51.6329 17.8158 50.8551 17.5033C50.0772 17.1908 49.2448 17.0366 48.4066 17.0499C47.5176 17.0153 46.6308 17.1605 45.7992 17.4769C44.9677 17.7932 44.2086 18.2742 43.5674 18.8909C42.9261 19.5077 42.416 20.2475 42.0676 21.0661C41.7192 21.8847 41.5396 22.7652 41.5396 23.6549C41.5396 24.5446 41.7192 25.4251 42.0676 26.2437C42.416 27.0623 42.9261 27.8022 43.5674 28.4189C44.2086 29.0357 44.9677 29.5166 45.7992 29.833C46.6308 30.1493 47.5176 30.2945 48.4066 30.2599C49.262 30.2941 50.115 30.1469 50.9095 29.8281C51.704 29.5092 52.4221 29.0259 53.0166 28.4099C54.0667 27.2563 54.6263 25.7391 54.5766 24.1799C54.5802 23.8046 54.5501 23.4298 54.4866 23.0599H48.4066ZM93.7166 24.4599C93.4558 23.6927 92.9681 23.0227 92.3181 22.5388C91.6681 22.0548 90.8864 21.7797 90.0766 21.7499C89.5296 21.7489 88.9882 21.86 88.4858 22.0765C87.9835 22.2929 87.5309 22.6101 87.156 23.0085C86.7811 23.4068 86.4919 23.8778 86.3062 24.3923C86.1206 24.9068 86.0424 25.454 86.0766 25.9999C86.0681 26.9128 86.355 27.8039 86.8947 28.5402C87.4344 29.2765 88.1978 29.8184 89.0709 30.0851C89.9439 30.3517 90.8799 30.3288 91.7388 30.0196C92.5978 29.7105 93.3337 29.1318 93.8366 28.3699L92.3866 27.3699C92.1704 27.7302 91.8639 28.0277 91.4972 28.2329C91.1306 28.4382 90.7167 28.544 90.2966 28.5399C89.8632 28.5578 89.4345 28.4442 89.0668 28.214C88.6992 27.9837 88.4098 27.6477 88.2366 27.2499L93.9266 24.8999L93.7166 24.4599ZM87.9166 25.8799C87.8963 25.5693 87.9382 25.2578 88.0399 24.9635C88.1415 24.6693 88.3008 24.3983 88.5085 24.1664C88.7162 23.9346 88.968 23.7464 89.2493 23.6131C89.5306 23.4798 89.8356 23.4039 90.1466 23.3899C90.4688 23.3703 90.7896 23.4461 91.0689 23.608C91.3482 23.7699 91.5735 24.0106 91.7166 24.2999L87.9166 25.8799ZM83.2966 29.9999H85.1666V17.4999H83.2966V29.9999ZM80.2366 22.6999H80.1666C79.8873 22.3818 79.5425 22.1277 79.1559 21.9551C78.7693 21.7825 78.35 21.6955 77.9266 21.6999C76.8338 21.7529 75.8033 22.2243 75.0486 23.0165C74.2939 23.8087 73.8729 24.8608 73.8729 25.9549C73.8729 27.049 74.2939 28.1012 75.0486 28.8933C75.8033 29.6855 76.8338 30.1569 77.9266 30.2099C78.3506 30.2184 78.7712 30.1332 79.1584 29.9603C79.5456 29.7875 79.8899 29.5312 80.1666 29.2099H80.2366V29.8199C80.2366 31.4499 79.3666 32.3199 77.9666 32.3199C77.4989 32.3096 77.0449 32.1606 76.662 31.8918C76.2792 31.6229 75.985 31.2464 75.8166 30.8099L74.1966 31.4799C74.4961 32.2322 75.0169 32.8758 75.69 33.3258C76.3631 33.7757 77.157 34.0108 77.9666 33.9999C80.1566 33.9999 81.9666 32.7099 81.9666 29.5699V21.9999H80.2366V22.6999ZM78.0866 28.5799C77.4314 28.5391 76.8164 28.25 76.3669 27.7716C75.9174 27.2932 75.6672 26.6614 75.6672 26.0049C75.6672 25.3485 75.9174 24.7167 76.3669 24.2383C76.8164 23.7598 77.4314 23.4708 78.0866 23.4299C78.4068 23.4437 78.721 23.5218 79.0105 23.6596C79.2999 23.7973 79.5587 23.9918 79.7714 24.2316C79.9841 24.4714 80.1464 24.7515 80.2487 25.0553C80.3509 25.3591 80.391 25.6803 80.3666 25.9999C80.3939 26.3206 80.3558 26.6435 80.2548 26.9491C80.1537 27.2546 79.9917 27.5365 79.7786 27.7777C79.5654 28.0189 79.3056 28.2143 79.0148 28.3522C78.724 28.4901 78.4082 28.5676 78.0866 28.5799ZM102.477 17.4999H97.9966V29.9999H99.8666V25.2599H102.477C103.01 25.2982 103.545 25.2263 104.049 25.0487C104.553 24.871 105.014 24.5915 105.406 24.2274C105.797 23.8634 106.109 23.4227 106.322 22.9328C106.535 22.4428 106.645 21.9142 106.645 21.3799C106.645 20.8456 106.535 20.317 106.322 19.8271C106.109 19.3372 105.797 18.8965 105.406 18.5324C105.014 18.1684 104.553 17.8888 104.049 17.7112C103.545 17.5336 103.01 17.4616 102.477 17.4999ZM102.477 23.4999H99.8666V19.2399H102.517C102.798 19.2399 103.076 19.2953 103.336 19.4028C103.595 19.5104 103.831 19.668 104.03 19.8667C104.229 20.0654 104.386 20.3013 104.494 20.561C104.601 20.8206 104.657 21.0989 104.657 21.3799C104.657 21.661 104.601 21.9392 104.494 22.1989C104.386 22.4585 104.229 22.6944 104.03 22.8931C103.831 23.0918 103.595 23.2495 103.336 23.357C103.076 23.4646 102.798 23.5199 102.517 23.5199L102.477 23.4999ZM114.017 21.7099C113.336 21.6679 112.657 21.8265 112.065 22.1659C111.474 22.5054 110.994 23.0109 110.687 23.6199L112.337 24.3099C112.503 24.0093 112.754 23.7634 113.057 23.602C113.36 23.4405 113.704 23.3703 114.047 23.3999C114.284 23.3722 114.525 23.392 114.754 23.4582C114.984 23.5245 115.198 23.6358 115.384 23.7856C115.57 23.9355 115.725 24.1209 115.839 24.3311C115.952 24.5413 116.023 24.7721 116.047 25.0099V25.1299C115.445 24.8138 114.776 24.6491 114.097 24.6499C112.317 24.6499 110.497 25.6499 110.497 27.4699C110.514 27.8568 110.609 28.2361 110.776 28.5855C110.944 28.9348 111.179 29.247 111.469 29.5035C111.759 29.7601 112.098 29.9557 112.465 30.0787C112.832 30.2018 113.221 30.2498 113.607 30.2199C114.076 30.2459 114.544 30.1466 114.962 29.9322C115.38 29.7178 115.734 29.3961 115.987 28.9999H116.047V29.9999H117.847V25.1899C117.847 22.9999 116.187 21.7299 114.057 21.7299L114.017 21.7099ZM113.787 28.5599C113.177 28.5599 112.327 28.2499 112.327 27.4999C112.327 26.4999 113.387 26.1599 114.327 26.1599C114.921 26.1453 115.508 26.2903 116.027 26.5799C115.964 27.123 115.706 27.6249 115.302 27.9926C114.897 28.3604 114.373 28.569 113.827 28.5799L113.787 28.5599ZM124.407 21.9999L122.267 27.4199H122.207L119.987 21.9999H117.987L121.317 29.5799L119.417 33.7899H121.367L126.487 21.9999H124.407ZM107.607 29.9999H109.467V17.4999H107.607V29.9999Z" fill="white"/>
<path d="M21.3866 19.4199L10.7366 30.7199C10.8529 31.1473 11.0659 31.5423 11.3592 31.8742C11.6525 32.2062 12.0181 32.4663 12.4279 32.6345C12.8377 32.8026 13.2807 32.8744 13.7226 32.8441C14.1645 32.8138 14.5935 32.6824 14.9766 32.4599L26.9766 25.5399L21.3866 19.4199Z" fill="#EA4335"/>
<path d="M32.1566 17.5L26.9766 14.5L21.1566 19.69L26.9966 25.54L32.1466 22.54C32.6044 22.2948 32.9871 21.93 33.2539 21.4845C33.5207 21.0389 33.6616 20.5293 33.6616 20.01C33.6616 19.4907 33.5207 18.9811 33.2539 18.5355C32.9871 18.09 32.6044 17.7252 32.1466 17.48L32.1566 17.5Z" fill="#FBBC04"/>
<path d="M10.7367 9.28027C10.6838 9.51648 10.6603 9.75831 10.6667 10.0003V30.0003C10.6684 30.2502 10.702 30.4989 10.7667 30.7403L21.7667 19.7403L10.7367 9.28027Z" fill="#4285F4"/>
<path d="M21.4667 19.9996L26.9767 14.4896L14.9767 7.54965C14.5258 7.28165 14.0111 7.14002 13.4867 7.13965C12.854 7.14146 12.2395 7.35082 11.7373 7.73558C11.2351 8.12035 10.873 8.65927 10.7067 9.26965L21.4667 19.9996Z" fill="#34A853"/>
</svg>
