<svg width="121" height="40" viewBox="0 0 121 40" fill="none" xmlns="http://www.w3.org/2000/svg">
<path d="M110.801 7.92969e-06H10.2013C9.83461 7.92969e-06 9.47231 7.92975e-06 9.10658 0.00200793C8.80043 0.00400793 8.49672 0.00981793 8.18763 0.0147079C7.51614 0.0226097 6.84623 0.0816842 6.18373 0.191418C5.52215 0.303541 4.8813 0.514924 4.28285 0.818418C3.68513 1.12448 3.13897 1.52218 2.6642 1.99708C2.18693 2.47064 1.78909 3.01802 1.48598 3.61817C1.18203 4.21712 0.971266 4.85895 0.860976 5.52149C0.749637 6.18319 0.689724 6.85253 0.681776 7.52349C0.672496 7.83009 0.671516 8.13771 0.666626 8.44435V31.5586C0.671516 31.8691 0.672496 32.1699 0.681776 32.4805C0.689727 33.1514 0.749639 33.8207 0.860976 34.4824C0.970962 35.1453 1.18173 35.7875 1.48598 36.3867C1.78895 36.9849 2.18685 37.5301 2.6642 38.001C3.13717 38.478 3.68368 38.876 4.28285 39.1797C4.88129 39.484 5.52208 39.6967 6.18373 39.8105C6.84634 39.9194 7.51618 39.9785 8.18763 39.9873C8.49672 39.9941 8.80043 39.998 9.10658 39.998C9.4723 40 9.83463 40 10.2013 40H110.801C111.161 40 111.526 40 111.885 39.998C112.19 39.998 112.503 39.9941 112.807 39.9873C113.477 39.9789 114.146 39.9198 114.807 39.8105C115.471 39.6959 116.114 39.4833 116.715 39.1797C117.314 38.8758 117.86 38.4779 118.333 38.001C118.809 37.5282 119.208 36.9835 119.514 36.3867C119.816 35.7871 120.025 35.145 120.133 34.4824C120.245 33.8206 120.307 33.1515 120.319 32.4805C120.323 32.1699 120.323 31.8691 120.323 31.5586C120.331 31.1953 120.331 30.834 120.331 30.4648V9.53614C120.331 9.16993 120.331 8.80665 120.323 8.44435C120.323 8.13771 120.323 7.83009 120.319 7.52345C120.307 6.85243 120.245 6.18324 120.133 5.52145C120.025 4.85929 119.816 4.21751 119.514 3.61813C118.897 2.4152 117.918 1.43603 116.715 0.818328C116.114 0.515575 115.471 0.304248 114.807 0.191328C114.146 0.0811107 113.478 0.0220157 112.807 0.0145679C112.503 0.00968793 112.19 0.00382793 111.885 0.00187793C111.526 -0.00012207 111.161 -0.00012207 110.801 -0.00012207V7.92969e-06Z" fill="#A6A6A6"/>
<path d="M9.11146 39.125C8.80678 39.125 8.50946 39.1211 8.20717 39.1143C7.58095 39.1061 6.9562 39.0516 6.33803 38.9512C5.76162 38.8519 5.20324 38.6673 4.68129 38.4033C4.16413 38.1415 3.69244 37.7983 3.28429 37.3867C2.87023 36.98 2.52551 36.5082 2.26378 35.9902C1.99917 35.4688 1.81605 34.9099 1.72078 34.333C1.61791 33.7131 1.56225 33.0863 1.55428 32.458C1.54794 32.2471 1.53964 31.5449 1.53964 31.5449V8.44434C1.53964 8.44434 1.54848 7.75293 1.55433 7.5498C1.56196 6.92248 1.61729 6.29665 1.71986 5.67773C1.8153 5.09925 1.99857 4.53875 2.26332 4.01563C2.52409 3.49794 2.8669 3.02586 3.27846 2.61768C3.68957 2.20562 4.16276 1.8606 4.6808 1.59521C5.20155 1.33209 5.75888 1.14873 6.33412 1.05127C6.95432 0.949836 7.58124 0.894996 8.20963 0.88721L9.11195 0.875H111.881L112.794 0.8877C113.416 0.895099 114.037 0.94945 114.652 1.05029C115.233 1.14898 115.796 1.33362 116.323 1.59814C117.361 2.13299 118.205 2.97916 118.738 4.01807C118.998 4.53758 119.179 5.09351 119.273 5.66699C119.377 6.29099 119.435 6.92174 119.447 7.5542C119.45 7.8374 119.45 8.1416 119.45 8.44434C119.458 8.81934 119.458 9.17627 119.458 9.53613V30.4648C119.458 30.8281 119.458 31.1826 119.45 31.54C119.45 31.8652 119.45 32.1631 119.446 32.4697C119.434 33.0909 119.377 33.7104 119.275 34.3232C119.182 34.9043 119 35.4675 118.735 35.9932C118.471 36.5056 118.129 36.9733 117.719 37.3789C117.311 37.7927 116.838 38.1379 116.32 38.4014C115.795 38.6674 115.232 38.8527 114.652 38.9512C114.034 39.0522 113.409 39.1067 112.783 39.1143C112.49 39.1211 112.183 39.125 111.885 39.125L110.801 39.127L9.11146 39.125Z" fill="black"/>
<path d="M25.4355 20.3011C25.4463 19.4665 25.668 18.6481 26.08 17.9221C26.492 17.1962 27.081 16.5862 27.7921 16.1491C27.3403 15.5039 26.7444 14.973 26.0515 14.5984C25.3587 14.2239 24.5881 14.016 23.8009 13.9914C22.1217 13.8151 20.4937 14.9962 19.638 14.9962C18.7657 14.9962 17.4482 14.0089 16.0295 14.0381C15.1118 14.0677 14.2175 14.3346 13.4336 14.8126C12.6497 15.2907 12.003 15.9637 11.5566 16.7659C9.62258 20.1144 11.0652 25.0354 12.9178 27.742C13.8447 29.0674 14.928 30.5478 16.3454 30.4953C17.7325 30.4378 18.2505 29.6108 19.9248 29.6108C21.5836 29.6108 22.0696 30.4953 23.5158 30.4619C25.0042 30.4378 25.9419 29.1307 26.8363 27.7928C27.5023 26.8484 28.0148 25.8047 28.3547 24.7003C27.49 24.3346 26.7521 23.7224 26.233 22.9401C25.7139 22.1578 25.4365 21.24 25.4355 20.3011Z" fill="white"/>
<path d="M22.7039 12.2113C23.5154 11.2371 23.9152 9.98494 23.8184 8.7207C22.5786 8.85092 21.4333 9.44348 20.6108 10.3803C20.2087 10.838 19.9007 11.3704 19.7044 11.9472C19.5082 12.524 19.4275 13.1337 19.4671 13.7417C20.0872 13.7481 20.7007 13.6137 21.2614 13.3486C21.8221 13.0835 22.3153 12.6946 22.7039 12.2113Z" fill="white"/>
<path d="M42.9689 27.1397H38.2355L37.0988 30.4961H35.0939L39.5773 18.0781H41.6603L46.1437 30.4961H44.1046L42.9689 27.1397ZM38.7257 25.5908H42.4777L40.6281 20.1436H40.5763L38.7257 25.5908Z" fill="white"/>
<path d="M55.8263 25.9695C55.8263 28.7829 54.3204 30.5905 52.048 30.5905C51.4723 30.6207 50.8998 30.4881 50.396 30.2079C49.8922 29.9278 49.4775 29.5114 49.1993 29.0065H49.1563V33.4909H47.2979V21.4421H49.0968V22.948H49.131C49.4219 22.4455 49.8437 22.0313 50.3513 21.7495C50.8589 21.4676 51.4335 21.3287 52.0138 21.3474C54.3116 21.3474 55.8263 23.1638 55.8263 25.9695ZM53.9161 25.9695C53.9161 24.1365 52.9689 22.9314 51.5236 22.9314C50.1036 22.9314 49.1486 24.1618 49.1486 25.9695C49.1486 27.7937 50.1036 29.0154 51.5236 29.0154C52.9689 29.0154 53.9161 27.8191 53.9161 25.9695Z" fill="white"/>
<path d="M65.7911 25.9694C65.7911 28.7829 64.2853 30.5905 62.0128 30.5905C61.4372 30.6206 60.8647 30.488 60.3609 30.2079C59.8571 29.9278 59.4424 29.5114 59.1642 29.0065H59.1212V33.4909H57.2628V21.4421H59.0616V22.948H59.0958C59.3867 22.4455 59.8085 22.0313 60.3161 21.7495C60.8237 21.4676 61.3983 21.3287 61.9786 21.3474C64.2765 21.3474 65.7911 23.1638 65.7911 25.9694ZM63.881 25.9694C63.881 24.1364 62.9337 22.9314 61.4884 22.9314C60.0685 22.9314 59.1134 24.1618 59.1134 25.9694C59.1134 27.7937 60.0685 29.0153 61.4884 29.0153C62.9337 29.0153 63.881 27.8191 63.881 25.9694H63.881Z" fill="white"/>
<path d="M72.3771 27.0362C72.5148 28.2676 73.7111 29.0762 75.3458 29.0762C76.9122 29.0762 78.0392 28.2676 78.0392 27.1572C78.0392 26.1934 77.3595 25.6162 75.7501 25.2207L74.1408 24.833C71.8605 24.2822 70.8019 23.2158 70.8019 21.4854C70.8019 19.3428 72.6691 17.8711 75.3204 17.8711C77.9444 17.8711 79.7433 19.3428 79.8038 21.4854H77.9278C77.8155 20.2461 76.7911 19.4981 75.294 19.4981C73.797 19.4981 72.7726 20.2549 72.7726 21.3565C72.7726 22.2344 73.4269 22.751 75.0274 23.1465L76.3956 23.4824C78.9434 24.0849 80.0021 25.1084 80.0021 26.9248C80.0021 29.248 78.1515 30.7031 75.2081 30.7031C72.4542 30.7031 70.5948 29.2822 70.4747 27.0361L72.3771 27.0362Z" fill="white"/>
<path d="M84.0128 19.2999V21.4424H85.7345V22.9141H84.0128V27.9053C84.0128 28.6807 84.3575 29.0421 85.1144 29.0421C85.3188 29.0385 85.5228 29.0241 85.7257 28.9991V30.4619C85.3854 30.5255 85.0396 30.5543 84.6935 30.5479C82.8605 30.5479 82.1456 29.8594 82.1456 28.1035V22.9141H80.8292V21.4424H82.1456V19.2999H84.0128Z" fill="white"/>
<path d="M86.7316 25.9698C86.7316 23.1212 88.4093 21.3311 91.0255 21.3311C93.6505 21.3311 95.3205 23.1211 95.3205 25.9698C95.3205 28.8262 93.6593 30.6085 91.0255 30.6085C88.3927 30.6085 86.7316 28.8262 86.7316 25.9698ZM93.4269 25.9698C93.4269 24.0157 92.5314 22.8624 91.0255 22.8624C89.5197 22.8624 88.6251 24.0245 88.6251 25.9698C88.6251 27.9317 89.5197 29.0762 91.0255 29.0762C92.5314 29.0762 93.4269 27.9317 93.4269 25.9698H93.4269Z" fill="white"/>
<path d="M96.8527 21.442H98.6251V22.983H98.6681C98.788 22.5017 99.07 22.0764 99.4666 21.7785C99.8632 21.4806 100.35 21.3284 100.846 21.3473C101.06 21.3465 101.274 21.3698 101.483 21.4166V23.1549C101.212 23.0723 100.93 23.0343 100.648 23.0426C100.378 23.0316 100.108 23.0792 99.8586 23.1821C99.6088 23.285 99.3841 23.4408 99.2002 23.6386C99.0162 23.8365 98.8772 24.0719 98.7928 24.3286C98.7084 24.5852 98.6805 24.8571 98.7111 25.1256V30.4957H96.8527L96.8527 21.442Z" fill="white"/>
<path d="M110.051 27.837C109.801 29.4805 108.2 30.6085 106.152 30.6085C103.519 30.6085 101.884 28.8438 101.884 26.0128C101.884 23.1729 103.527 21.3311 106.074 21.3311C108.579 21.3311 110.154 23.0518 110.154 25.7969V26.4337H103.76V26.546C103.73 26.8792 103.772 27.2148 103.882 27.5307C103.992 27.8465 104.169 28.1353 104.399 28.3778C104.629 28.6204 104.909 28.8111 105.218 28.9374C105.528 29.0638 105.861 29.1227 106.195 29.1104C106.635 29.1516 107.075 29.0498 107.452 28.8204C107.829 28.591 108.121 28.246 108.286 27.837L110.051 27.837ZM103.769 25.1348H108.295C108.312 24.8352 108.266 24.5354 108.162 24.2542C108.057 23.973 107.895 23.7165 107.687 23.5007C107.478 23.2849 107.227 23.1146 106.95 23.0004C106.672 22.8862 106.374 22.8305 106.074 22.837C105.772 22.8352 105.472 22.8933 105.192 23.0081C104.912 23.1228 104.657 23.2919 104.443 23.5055C104.228 23.7191 104.058 23.9731 103.943 24.2528C103.827 24.5324 103.768 24.8322 103.769 25.1348V25.1348Z" fill="white"/>
<path d="M38.4928 8.73053C38.8824 8.70257 39.2734 8.76143 39.6375 8.90286C40.0016 9.04429 40.3298 9.26477 40.5984 9.5484C40.867 9.83202 41.0692 10.1717 41.1906 10.543C41.312 10.9143 41.3495 11.3079 41.3004 11.6954C41.3004 13.6016 40.2701 14.6974 38.4928 14.6974H36.3375V8.73053H38.4928ZM37.2643 13.8535H38.3893C38.6677 13.8702 38.9463 13.8245 39.2048 13.7199C39.4634 13.6153 39.6953 13.4543 39.8838 13.2488C40.0723 13.0432 40.2126 12.7982 40.2945 12.5316C40.3763 12.265 40.3977 11.9834 40.357 11.7075C40.3948 11.4327 40.3712 11.1529 40.2881 10.8883C40.205 10.6236 40.0643 10.3806 39.8763 10.1767C39.6882 9.97273 39.4574 9.81292 39.2003 9.70868C38.9432 9.60445 38.6663 9.55836 38.3893 9.57374H37.2643V13.8535Z" fill="white"/>
<path d="M42.3473 12.4439C42.319 12.1479 42.3528 11.8494 42.4467 11.5673C42.5405 11.2852 42.6923 11.0259 42.8922 10.8059C43.0921 10.5859 43.3359 10.4102 43.6077 10.2899C43.8796 10.1696 44.1735 10.1075 44.4708 10.1075C44.7681 10.1075 45.0621 10.1696 45.3339 10.2899C45.6058 10.4102 45.8495 10.5859 46.0494 10.8059C46.2494 11.0259 46.4011 11.2852 46.495 11.5673C46.5888 11.8494 46.6227 12.1479 46.5943 12.4439C46.6232 12.7401 46.5897 13.0391 46.4962 13.3216C46.4026 13.6041 46.2509 13.8639 46.0509 14.0843C45.8509 14.3048 45.607 14.4809 45.3349 14.6014C45.0628 14.722 44.7684 14.7842 44.4708 14.7842C44.1732 14.7842 43.8789 14.722 43.6067 14.6014C43.3346 14.4809 43.0907 14.3048 42.8907 14.0843C42.6907 13.8639 42.5391 13.6041 42.4455 13.3216C42.3519 13.0391 42.3184 12.7401 42.3473 12.4439ZM45.6803 12.4439C45.6803 11.4678 45.2418 10.897 44.4723 10.897C43.6998 10.897 43.2653 11.4678 43.2653 12.4439C43.2653 13.4278 43.6998 13.9942 44.4723 13.9942C45.2418 13.9942 45.6803 13.4238 45.6803 12.4439H45.6803Z" fill="white"/>
<path d="M52.2399 14.6973H51.318L50.3873 11.3809H50.317L49.3903 14.6973H48.4772L47.236 10.1943H48.1373L48.944 13.6303H49.0104L49.9362 10.1943H50.7887L51.7145 13.6303H51.7848L52.5875 10.1943H53.4762L52.2399 14.6973Z" fill="white"/>
<path d="M54.5201 10.1939H55.3756V10.9092H55.442C55.5547 10.6523 55.7447 10.4369 55.9855 10.2931C56.2264 10.1493 56.5062 10.0842 56.7858 10.107C57.0049 10.0905 57.2249 10.1235 57.4295 10.2036C57.6341 10.2837 57.818 10.4088 57.9677 10.5697C58.1174 10.7305 58.229 10.923 58.2942 11.1328C58.3594 11.3426 58.3765 11.5644 58.3444 11.7818V14.6968H57.4557V12.0049C57.4557 11.2813 57.1412 10.9214 56.484 10.9214C56.3353 10.9145 56.1868 10.9398 56.0487 10.9957C55.9106 11.0515 55.7863 11.1365 55.6842 11.2449C55.582 11.3533 55.5046 11.4825 55.457 11.6236C55.4095 11.7647 55.3931 11.9145 55.4088 12.0625V14.6968H54.5201L54.5201 10.1939Z" fill="white"/>
<path d="M59.7604 8.43652H60.649V14.6973H59.7604V8.43652Z" fill="white"/>
<path d="M61.8844 12.4439C61.8561 12.1479 61.89 11.8494 61.9838 11.5673C62.0777 11.2852 62.2295 11.0259 62.4294 10.8059C62.6294 10.5859 62.8731 10.4101 63.145 10.2898C63.4169 10.1696 63.7109 10.1074 64.0082 10.1074C64.3055 10.1074 64.5995 10.1696 64.8713 10.2898C65.1432 10.4101 65.3869 10.5859 65.5869 10.8059C65.7869 11.0259 65.9386 11.2852 66.0325 11.5673C66.1264 11.8494 66.1602 12.1479 66.132 12.4439C66.1608 12.7401 66.1273 13.0391 66.0337 13.3216C65.94 13.6042 65.7883 13.864 65.5883 14.0844C65.3883 14.3048 65.1444 14.4809 64.8723 14.6014C64.6001 14.722 64.3058 14.7842 64.0082 14.7842C63.7105 14.7842 63.4162 14.722 63.1441 14.6014C62.8719 14.4809 62.628 14.3048 62.428 14.0844C62.228 13.864 62.0763 13.6042 61.9827 13.3216C61.8891 13.0391 61.8556 12.7401 61.8844 12.4439ZM65.2174 12.4439C65.2174 11.4678 64.7789 10.897 64.0094 10.897C63.2369 10.897 62.8024 11.4678 62.8024 12.4439C62.8024 13.4278 63.237 13.9942 64.0094 13.9942C64.7789 13.9942 65.2174 13.4239 65.2174 12.4439H65.2174Z" fill="white"/>
<path d="M67.0675 13.4238C67.0675 12.6133 67.671 12.146 68.7423 12.0796L69.962 12.0093V11.6206C69.962 11.145 69.6476 10.8765 69.0402 10.8765C68.5441 10.8765 68.2003 11.0586 68.1017 11.377H67.2413C67.3322 10.6035 68.0597 10.1074 69.0812 10.1074C70.2101 10.1074 70.8468 10.6694 70.8468 11.6206V14.6973H69.9913V14.0645H69.921C69.7783 14.2914 69.5779 14.4765 69.3403 14.6007C69.1027 14.7249 68.8363 14.7838 68.5685 14.7715C68.3794 14.7911 68.1884 14.7709 68.0076 14.7122C67.8269 14.6536 67.6604 14.5576 67.519 14.4307C67.3776 14.3037 67.2643 14.1485 67.1866 13.9751C67.1088 13.8017 67.0682 13.6139 67.0675 13.4238ZM69.962 13.0391V12.6626L68.8624 12.7329C68.2423 12.7744 67.9611 12.9853 67.9611 13.3823C67.9611 13.7876 68.3126 14.0234 68.7961 14.0234C68.9377 14.0378 69.0808 14.0235 69.2168 13.9814C69.3528 13.9393 69.4789 13.8703 69.5877 13.7784C69.6965 13.6866 69.7857 13.5738 69.85 13.4468C69.9143 13.3198 69.9524 13.1811 69.962 13.0391Z" fill="white"/>
<path d="M72.0148 12.4439C72.0148 11.021 72.7462 10.1196 73.8839 10.1196C74.1653 10.1067 74.4446 10.1741 74.6891 10.314C74.9337 10.4539 75.1333 10.6605 75.2648 10.9096H75.3312V8.43652H76.2198V14.6973H75.3683V13.9858H75.298C75.1564 14.2333 74.9498 14.4374 74.7005 14.5758C74.4513 14.7143 74.1689 14.782 73.8839 14.7715C72.7384 14.7715 72.0148 13.8701 72.0148 12.4439ZM72.9328 12.4439C72.9328 13.3989 73.383 13.9737 74.1359 13.9737C74.8849 13.9737 75.3478 13.3907 75.3478 12.4478C75.3478 11.5093 74.88 10.918 74.1359 10.918C73.3878 10.918 72.9327 11.4966 72.9327 12.4439H72.9328Z" fill="white"/>
<path d="M79.8966 12.4439C79.8683 12.1479 79.9022 11.8494 79.996 11.5673C80.0898 11.2852 80.2416 11.0259 80.4415 10.8059C80.6415 10.5859 80.8852 10.4102 81.157 10.2899C81.4289 10.1696 81.7229 10.1075 82.0201 10.1075C82.3174 10.1075 82.6114 10.1696 82.8833 10.2899C83.1551 10.4102 83.3988 10.5859 83.5988 10.8059C83.7987 11.0259 83.9505 11.2852 84.0443 11.5673C84.1381 11.8494 84.172 12.1479 84.1437 12.4439C84.1725 12.7401 84.1391 13.0391 84.0455 13.3216C83.9519 13.6041 83.8002 13.8639 83.6002 14.0843C83.4002 14.3048 83.1563 14.4809 82.8842 14.6014C82.6121 14.722 82.3178 14.7842 82.0201 14.7842C81.7225 14.7842 81.4282 14.722 81.1561 14.6014C80.8839 14.4809 80.64 14.3048 80.4401 14.0843C80.2401 13.8639 80.0884 13.6041 79.9948 13.3216C79.9012 13.0391 79.8678 12.7401 79.8966 12.4439ZM83.2296 12.4439C83.2296 11.4678 82.7911 10.897 82.0216 10.897C81.2492 10.897 80.8146 11.4678 80.8146 12.4439C80.8146 13.4278 81.2492 13.9942 82.0216 13.9942C82.7911 13.9942 83.2296 13.4238 83.2296 12.4439Z" fill="white"/>
<path d="M85.3361 10.1939H86.1915V10.9092H86.2579C86.3706 10.6523 86.5606 10.4369 86.8015 10.2931C87.0423 10.1493 87.3221 10.0842 87.6017 10.107C87.8208 10.0905 88.0408 10.1235 88.2454 10.2036C88.45 10.2837 88.6339 10.4088 88.7836 10.5697C88.9333 10.7305 89.0449 10.923 89.1101 11.1328C89.1753 11.3426 89.1924 11.5644 89.1603 11.7818V14.6968H88.2716V12.0049C88.2716 11.2813 87.9572 10.9214 87.2999 10.9214C87.1512 10.9145 87.0027 10.9398 86.8646 10.9957C86.7266 11.0515 86.6022 11.1365 86.5001 11.2449C86.398 11.3533 86.3205 11.4825 86.2729 11.6236C86.2254 11.7647 86.209 11.9145 86.2247 12.0625V14.6968H85.3361V10.1939Z" fill="white"/>
<path d="M94.1818 9.07324V10.2148H95.1574V10.9634H94.1818V13.2788C94.1818 13.7505 94.3761 13.957 94.8185 13.957C94.9317 13.9567 95.0449 13.9498 95.1574 13.9365V14.6768C94.9978 14.7053 94.8361 14.7205 94.674 14.7222C93.6857 14.7222 93.2921 14.3745 93.2921 13.5063V10.9633H92.5773V10.2148H93.2921V9.07324H94.1818Z" fill="white"/>
<path d="M96.3712 8.43652H97.2521V10.918H97.3224C97.4405 10.6587 97.6357 10.4421 97.8814 10.2977C98.1271 10.1534 98.4114 10.0883 98.6954 10.1113C98.9133 10.0995 99.1312 10.1359 99.3335 10.2179C99.5358 10.2999 99.7175 10.4256 99.8656 10.586C100.014 10.7463 100.125 10.9373 100.19 11.1455C100.256 11.3536 100.275 11.5737 100.246 11.79V14.6973H99.3566V12.0093C99.3566 11.29 99.0216 10.9258 98.3937 10.9258C98.241 10.9132 98.0873 10.9342 97.9436 10.9873C97.7998 11.0404 97.6693 11.1242 97.5613 11.2329C97.4534 11.3417 97.3704 11.4727 97.3184 11.6168C97.2663 11.761 97.2464 11.9147 97.2599 12.0674V14.6973H96.3713L96.3712 8.43652Z" fill="white"/>
<path d="M105.428 13.4815C105.307 13.893 105.046 14.249 104.689 14.4871C104.332 14.7253 103.903 14.8304 103.477 14.7842C103.18 14.792 102.885 14.7352 102.613 14.6177C102.34 14.5001 102.097 14.3247 101.899 14.1036C101.701 13.8824 101.553 13.6209 101.467 13.3371C101.38 13.0532 101.356 12.754 101.397 12.46C101.357 12.1651 101.381 11.8652 101.468 11.5805C101.554 11.2958 101.701 11.033 101.898 10.81C102.095 10.5869 102.337 10.4087 102.609 10.2875C102.881 10.1663 103.175 10.1049 103.473 10.1074C104.726 10.1074 105.482 10.9634 105.482 12.3774V12.6875H102.302V12.7373C102.288 12.9026 102.309 13.0689 102.363 13.2257C102.417 13.3824 102.503 13.5261 102.616 13.6476C102.729 13.769 102.866 13.8655 103.019 13.9309C103.171 13.9963 103.335 14.0292 103.501 14.0273C103.714 14.0528 103.929 14.0146 104.12 13.9174C104.311 13.8202 104.468 13.6684 104.572 13.4814L105.428 13.4815ZM102.302 12.0303H104.576C104.587 11.8792 104.567 11.7274 104.516 11.5846C104.465 11.4419 104.385 11.3114 104.28 11.2016C104.176 11.0917 104.05 11.0049 103.91 10.9467C103.77 10.8886 103.619 10.8603 103.468 10.8638C103.314 10.8619 103.162 10.8907 103.019 10.9487C102.877 11.0066 102.748 11.0925 102.639 11.2012C102.53 11.3099 102.444 11.4393 102.387 11.5817C102.329 11.724 102.3 11.8766 102.302 12.0303H102.302Z" fill="white"/>
</svg>
