<svg width="65" height="65" viewBox="0 0 65 65" fill="none" xmlns="http://www.w3.org/2000/svg">
<path opacity="0.5" d="M46.9283 3.07106C53.228 -3.22859 63.9994 1.23309 63.9994 10.1421L63.9994 29C63.9994 34.5229 59.5222 39 53.9994 39L35.1415 39C26.2324 39 21.7708 28.2286 28.0704 21.9289L46.9283 3.07106Z" fill="#15803D"/>
<path d="M53.6667 54.3332L11 40.9998M53.6667 54.3332H11V40.9998L53.6667 54.3332ZM53.6667 54.3332V32.9998C53.6667 21.2178 44.1155 11.6665 32.3333 11.6665C30.2152 11.6665 28.1693 11.9752 26.2381 12.5499C17.4259 15.1726 11 23.3358 11 32.9998V40.9998L53.6667 54.3332Z" stroke="#78350F" stroke-width="1.5" stroke-linecap="round" stroke-linejoin="round"/>
<path d="M43 25V27.6667" stroke="#78350F" stroke-width="1.5" stroke-linecap="round"/>
<path d="M32.3333 22.3335V25.0002" stroke="#78350F" stroke-width="1.5" stroke-linecap="round"/>
<path d="M21.6667 19.6665V22.3332" stroke="#78350F" stroke-width="1.5" stroke-linecap="round"/>
</svg>
